<svg width="40"  height="39" viewBox="0 0 40 39" fill="none" xmlns="http://www.w3.org/2000/svg">
<g clip-path="url(#clip0_18_50)">
<path d="M20 38.6C9.5 38.6 1 30.1 1 19.6C1 9 9.5 0.5 20 0.5C30.5 0.5 39 9 39 19.5C39 30 30.5 38.6 20 38.6Z" stroke="white" stroke-width="1.5" stroke-miterlimit="10"/>
<path d="M17.1 31H21.7V19.4H25L25.3 15.5H21.7C21.7 15.5 21.7 14 21.7 13.3C21.7 12.4 21.9 12 22.8 12C23.5 12 25.3 12 25.3 12V8C25.3 8 22.7 8 22.1 8C18.7 8 17.1 9.5 17.1 12.4C17.1 14.9 17.1 15.5 17.1 15.5H14.7V19.4H17.1V31Z" fill="white"/>
</g>
<defs>
<clipPath id="clip0_18_50">
<rect width="39.9" height="39" fill="white"/>
</clipPath>
</defs>
</svg>
