<svg width="84" height="84" viewBox="0 0 84 84" fill="none" xmlns="http://www.w3.org/2000/svg">
<path d="M49.965 35.416L49.533 41.165H43.928V60.422H36.551V41.165H32.816V35.416H36.551V31.105V29.86C36.551 29.86 36.287 23.496 43.928 23.152C47.641 22.986 50.734 23.823 50.734 23.823L49.949 29.475C49.949 29.475 43.928 27.609 43.928 31.246V35.415H49.965V35.416Z" fill="white"/>
<path d="M41.774 83.55C18.741 83.55 0 64.809 0 41.774C0 18.739 18.741 0 41.774 0C64.809 0 83.55 18.739 83.55 41.774C83.55 64.809 64.809 83.55 41.774 83.55ZM41.774 5.739C21.904 5.739 5.739 21.904 5.739 41.774C5.739 61.644 21.904 77.81 41.774 77.81C61.646 77.81 77.81 61.644 77.81 41.774C77.81 21.904 61.646 5.739 41.774 5.739Z" fill="white"/>
</svg>
