<svg width="40" height="40" viewBox="0 0 40 40" fill="none" xmlns="http://www.w3.org/2000/svg">
<path d="M19.8 39.2C9.30005 39.2 0.800049 30.7 0.800049 20.2C0.800049 9.69995 9.30005 1.19995 19.8 1.19995C30.3 1.19995 38.8 9.69995 38.8 20.2C38.8 30.7 30.3 39.2 19.8 39.2Z" stroke="white" stroke-width="1.5" stroke-miterlimit="10"/>
<path d="M19.8 11.6C22.6 11.6 22.9 11.6 24 11.7C25 11.7 25.6 11.9 25.9 12.1C26.4 12.3 26.7 12.5 27.1 12.9C27.5 13.3 27.7 13.6 27.9 14.1C28 14.5 28.2 15 28.3 16C28.3 17.1 28.4 17.4 28.4 20.2C28.4 23 28.4 23.3 28.3 24.4C28.3 25.4 28.1 25.9999 27.9 26.2999C27.7 26.7999 27.5 27.1 27.1 27.5C26.7 27.9 26.4 28.0999 25.9 28.2999C25.5 28.3999 25 28.6 24 28.7C22.9 28.8 22.6 28.7999 19.8 28.7999C17 28.7999 16.7 28.8 15.6 28.7C14.6 28.7 14 28.4999 13.7 28.2999C13.2 28.0999 12.9 27.9 12.5 27.5C12.1 27.1 11.9 26.7999 11.7 26.2999C11.6 25.8999 11.4 25.4 11.3 24.4C11.2 23.3 11.2 23 11.2 20.2C11.2 17.4 11.2 17.1 11.3 16C11.3 15 11.5 14.4 11.7 14.1C11.9 13.6 12.1 13.3 12.5 12.9C12.9 12.5 13.2 12.3 13.7 12.1C14.1 12 14.6 11.8 15.6 11.7C16.7 11.6 17 11.6 19.8 11.6ZM19.8 9.69995C17 9.69995 16.6 9.69995 15.5 9.79995C14.4 9.89995 13.6 9.99995 13 10.3C12.3 10.6 11.7 10.9 11.2 11.5C10.6 12.1 10.3 12.7 10 13.3C9.70002 14 9.60002 14.7 9.50002 15.8C9.40002 16.9 9.40002 17.3 9.40002 20.1C9.40002 22.9 9.40002 23.3 9.50002 24.4C9.60002 25.5 9.70002 26.3 10 26.9C10.3 27.6 10.6 28.2 11.2 28.7C11.8 29.3 12.4 29.6 13 29.9C13.7 30.2 14.4 30.3 15.5 30.4C16.6 30.5 17 30.5 19.8 30.5C22.6 30.5 23 30.5 24.1 30.4C25.2 30.3 26 30.2 26.6 29.9C27.3 29.6 27.9 29.3 28.4 28.7C29 28.1 29.3 27.5 29.6 26.9C29.9 26.2 30 25.5 30.1 24.4C30.2 23.3 30.2 22.9 30.2 20.1C30.2 17.3 30.2 16.9 30.1 15.8C30 14.7 29.9 13.9 29.6 13.3C29.3 12.6 29 12 28.4 11.5C27.8 10.9 27.2 10.6 26.6 10.3C25.9 9.99995 25.2 9.89995 24.1 9.79995C23 9.69995 22.6 9.69995 19.8 9.69995Z" fill="white"/>
<path d="M19.8 14.7999C16.8 14.7999 14.4 17.1999 14.4 20.1999C14.4 23.1999 16.8 25.5999 19.8 25.5999C22.8 25.5999 25.2 23.1999 25.2 20.1999C25.1 17.1999 22.7 14.7999 19.8 14.7999ZM19.8 23.5999C17.9 23.5999 16.3 21.9999 16.3 20.0999C16.3 18.1999 17.9 16.5999 19.8 16.5999C21.7 16.5999 23.3 18.1999 23.3 20.0999C23.3 22.0999 21.7 23.5999 19.8 23.5999Z" fill="white"/>
<path d="M26.6 14.5999C26.6 15.2999 26 15.8999 25.3 15.8999C24.6 15.8999 24 15.2999 24 14.5999C24 13.8999 24.6 13.2999 25.3 13.2999C26 13.2999 26.6 13.8999 26.6 14.5999Z" fill="white"/>
</svg>
