<svg width="40" height="41" viewBox="0 0 40 41" fill="none" xmlns="http://www.w3.org/2000/svg">
<path d="M20.1 39.6C9.59998 39.6 1.09998 31.1 1.09998 20.6C1.09998 10.1 9.59998 1.59998 20.1 1.59998C30.6 1.59998 39.1 10.1 39.1 20.6C39.2 31 30.7 39.6 20.1 39.6Z" stroke="white" stroke-width="1.5" stroke-miterlimit="10"/>
<path d="M10 26.8999C11.8 28.0999 14 28.7999 16.4 28.7999C24.1 28.7999 28.5 22.2999 28.2 16.3999C29 15.7999 29.7 15.0999 30.3 14.1999C29.6 14.4999 28.8 14.7999 27.9 14.8999C28.8 14.3999 29.4 13.5999 29.7 12.5999C28.9 13.0999 28 13.3999 27.1 13.5999C26.3 12.7999 25.3 12.2999 24.1 12.2999C21.4 12.2999 19.4 14.7999 20 17.3999C16.5 17.1999 13.5 15.5999 11.4 13.0999C10.3 14.9999 10.8 17.3999 12.7 18.6999C12 18.6999 11.4 18.4999 10.8 18.1999C10.8 20.0999 12.1 21.8999 14.1 22.2999C13.5 22.4999 12.9 22.4999 12.2 22.3999C12.7 24.0999 14.3 25.2999 16.1 25.2999C14.4 26.5999 12.2 27.1999 10 26.8999Z" fill="white"/>
</svg>
